<svg version="1.0" xmlns="http://www.w3.org/2000/svg"
 width="400.000000pt" height="100.000000pt" viewBox="0 0 400.000000 100.000000"
 preserveAspectRatio="xMidYMid meet">

<g transform="translate(0.000000,100.000000) scale(0.100000,-0.100000)"
fill="#000000" stroke="none">
<path d="M1630 997 c-8 -8 -341 -19 -670 -22 -244 -2 -514 -16 -735 -39 -44
-5 -123 -33 -141 -50 -7 -6 -19 -42 -29 -81 -9 -38 -23 -89 -32 -112 -18 -50
-13 -155 9 -181 8 -9 22 -30 30 -47 58 -115 101 -175 125 -175 7 0 13 -4 13
-10 0 -21 67 -43 140 -47 57 -3 110 -15 220 -53 80 -26 137 -49 128 -49 -10
-1 -18 -4 -18 -9 0 -34 164 -60 480 -76 80 -4 156 -12 170 -17 34 -12 207 -14
485 -6 326 10 487 17 510 25 11 3 54 7 95 8 41 1 91 5 110 8 19 3 64 3 100 0
60 -6 63 -8 33 -16 -18 -5 -33 -14 -33 -20 0 -8 43 -9 158 -4 86 5 223 7 303
6 147 -2 315 17 409 45 57 17 117 26 202 31 89 5 143 40 173 114 4 8 11 23 16
33 18 33 40 188 33 237 -4 30 -2 50 5 54 6 4 11 15 11 24 0 9 10 41 22 70 19
46 20 55 8 63 -13 8 -11 12 8 26 29 20 28 34 -5 65 -44 41 -203 85 -388 108
-49 6 -115 15 -145 20 -30 5 -197 11 -370 15 -499 9 -678 16 -899 36 -214 20
-523 35 -531 26z m-317 -49 c71 3 75 -13 5 -21 -109 -13 -485 -20 -491 -10 -7
11 69 19 262 28 58 3 107 8 110 11 3 3 17 2 31 -3 14 -4 51 -6 83 -5z m187 -8
c0 -5 -6 -10 -14 -10 -8 0 -18 5 -21 10 -3 6 3 10 14 10 12 0 21 -4 21 -10z
m679 -20 c69 -6 187 -10 261 -9 197 3 780 -3 815 -7 17 -2 75 -6 131 -9 55 -2
121 -9 145 -15 24 -6 101 -24 171 -40 129 -29 174 -46 198 -75 12 -14 10 -15
-15 -5 -16 6 -49 13 -74 15 -25 2 -86 10 -136 18 -49 7 -95 10 -100 6 -12 -9
-181 14 -193 26 -4 4 8 5 26 2 17 -4 32 -3 32 2 0 33 -206 48 -720 56 -212 3
-425 8 -475 10 -147 9 -285 27 -278 38 3 5 23 6 46 3 22 -4 96 -11 166 -16z
m458 -786 c24 -9 41 -19 39 -22 -3 -2 -25 -8 -50 -13 -34 -6 -56 -4 -94 10
-28 11 -52 18 -54 16 -2 -1 -46 -5 -98 -9 -78 -5 -91 -4 -75 6 43 27 271 35
332 12z m-362 -24 c-3 -5 -13 -10 -21 -10 -8 0 -14 5 -14 10 0 6 9 10 21 10
11 0 17 -4 14 -10z"/>
</g>
</svg>
