<svg version="1.0" xmlns="http://www.w3.org/2000/svg"
 width="400.000000pt" height="100.000000pt" viewBox="0 0 400.000000 100.000000"
 preserveAspectRatio="xMidYMid meet">

<g transform="translate(0.000000,100.000000) scale(0.100000,-0.100000)"
fill="#000000" stroke="none">
<path d="M3624 960 c-11 -10 -545 -15 -895 -9 -142 3 -210 1 -220 -7 -8 -6
-50 -15 -94 -19 -94 -9 -87 -9 -195 0 -89 7 -561 17 -715 15 -49 -1 -94 -6
-99 -11 -13 -12 -53 -12 -61 1 -4 6 -11 8 -16 4 -13 -8 -153 -9 -166 -1 -11 7
-400 0 -413 -8 -10 -6 -310 -8 -335 -2 -12 3 -73 6 -138 8 -99 3 -120 1 -137
-14 -11 -9 -26 -17 -34 -17 -7 0 -19 -7 -26 -15 -7 -8 -22 -15 -34 -15 -19 0
-21 -6 -21 -49 0 -49 0 -49 94 -182 12 -16 11 -19 -3 -19 -9 0 -16 -4 -16 -8
0 -5 -12 -12 -26 -18 -22 -7 -27 -16 -30 -50 -3 -31 1 -45 15 -58 11 -10 17
-25 14 -37 -3 -10 -1 -19 4 -19 5 0 27 -16 49 -35 21 -19 47 -35 58 -35 10 0
16 -5 13 -12 -28 -73 -44 -98 -60 -98 -13 0 -17 -5 -13 -15 4 -11 -3 -19 -19
-25 -14 -5 -25 -18 -25 -28 0 -25 31 -83 59 -111 l23 -23 241 6 c133 3 301 9
372 14 72 4 180 6 240 4 61 -2 335 -5 610 -7 275 -1 525 -6 555 -9 116 -13
1152 -19 1279 -7 96 9 160 9 273 0 l148 -12 43 30 c36 26 43 38 50 79 6 33 4
74 -5 124 -11 65 -17 76 -41 88 -28 14 -34 31 -17 48 18 18 31 125 19 164 -6
19 -14 47 -19 63 -6 20 -5 27 5 27 8 0 16 22 22 58 6 42 12 57 24 56 14 -1 14
4 2 45 -39 130 -63 145 -221 146 -62 0 -116 -2 -118 -5z"/>
</g>
</svg>
