<svg xmlns="http://www.w3.org/2000/svg" x="0px" y="0px"
width="40" height="40"
transform = 'scale(0.5)'
viewBox="0 0 172 172"
style=" fill:#000000;"><g transform=""><g fill="none" fill-rule="nonzero" stroke="none" stroke-width="1" stroke-linecap="butt" stroke-linejoin="miter" stroke-miterlimit="10" stroke-dasharray="" stroke-dashoffset="0" font-family="none" font-weight="none" font-size="none" text-anchor="none" style="mix-blend-mode: normal"><path d="M0,172v-172h172v172z" fill="none"></path><path d="" fill="none"></path><path d="" fill="none"></path><path d="" fill="none"></path><path d="" fill="none"></path><path d="" fill="none"></path><g fill="#000000"><path d="M12.09375,14.78125c-2.28438,0 -4.03125,1.74687 -4.03125,4.03125c0,2.28438 1.74687,4.03125 4.03125,4.03125h9.40625v99.4375c0,7.39063 6.04688,13.4375 13.4375,13.4375h67.1875c2.28437,0 4.03125,-1.74687 4.03125,-4.03125c0,-2.28438 -1.74688,-4.03125 -4.03125,-4.03125h-67.1875c-2.95625,0 -5.375,-2.41875 -5.375,-5.375v-86h117.31042c1.74687,0 3.35833,0.8052 4.29895,2.28333c1.075,1.47812 1.34375,3.2271 0.67188,4.8396l-18.40833,55.36145c-2.01562,6.04688 -7.52552,10.07813 -13.97552,10.07813h-75.11615c-2.28437,0 -4.03125,1.74688 -4.03125,4.03125c0,2.28437 1.74688,4.03125 4.03125,4.03125h75.11615c9.80937,0 18.54322,-6.3151 21.63385,-15.58697l18.40833,-55.36407c1.34375,-4.16562 0.67397,-8.6 -1.87915,-12.09375c-2.55312,-3.49375 -6.58647,-5.6427 -10.88647,-5.6427h-117.17395v-9.40625c0,-2.28438 -1.74687,-4.03125 -4.03125,-4.03125zM34.9375,143.78125c-7.39062,0 -13.4375,6.04688 -13.4375,13.4375c0,7.39063 6.04688,13.4375 13.4375,13.4375c7.39063,0 13.4375,-6.04687 13.4375,-13.4375c0,-7.39062 -6.04687,-13.4375 -13.4375,-13.4375zM102.125,143.78125c-7.39062,0 -13.4375,6.04688 -13.4375,13.4375c0,7.39063 6.04688,13.4375 13.4375,13.4375c7.39063,0 13.4375,-6.04687 13.4375,-13.4375c0,-7.39062 -6.04687,-13.4375 -13.4375,-13.4375zM34.9375,151.84375c2.95625,0 5.375,2.41875 5.375,5.375c0,2.95625 -2.41875,5.375 -5.375,5.375c-2.95625,0 -5.375,-2.41875 -5.375,-5.375c0,-2.95625 2.41875,-5.375 5.375,-5.375zM102.125,151.84375c2.95625,0 5.375,2.41875 5.375,5.375c0,2.95625 -2.41875,5.375 -5.375,5.375c-2.95625,0 -5.375,-2.41875 -5.375,-5.375c0,-2.95625 2.41875,-5.375 5.375,-5.375z"></path></g></g></g></svg>