
<svg xmlns="http://www.w3.org/2000/svg" width="153" height="80" viewBox="0 0 153 80" fill="none">
<rect x="1" width="152" height="80" fill="#FFC078"/>
<path d="M117.5 71C113.873 76.6032 120 80 120 80H144.5C144.5 80 148.687 79.3161 150.5 77.5C152.313 75.6839 153 72 153 72V65C153 65 144 59.2313 136.5 60.5C129 61.7687 121.127 65.3968 117.5 71Z" fill="#E5A355"/>
<path d="M1 9.84298V21.843C1 21.843 6.28622 21.998 9 20.343C12.66 18.1109 14.2056 15.1197 14.5 10.843C14.7544 7.14688 14.8137 3.49983 11.5 1.84297C9.40423 0.795087 7.51362 0.301567 5.5 1.49976C4.18943 2.2796 2.73577 3.83359 2 4.99975C0.877813 6.77837 1 9.84298 1 9.84298Z" fill="#E6A456"/>
</svg>