<svg xmlns="http://www.w3.org/2000/svg" x="0px" y="0px"
width="72" height="72"
viewBox="0 0 226 226"
style=" fill:#000000;"><g transform=""><g fill="none" fill-rule="nonzero" stroke="none" stroke-width="1" stroke-linecap="butt" stroke-linejoin="miter" stroke-miterlimit="10" stroke-dasharray="" stroke-dashoffset="0" font-family="none" font-weight="none" font-size="none" text-anchor="none" style="mix-blend-mode: normal"><path d="M0,226v-226h226v226z" fill="none"></path><g><path d="M52.96875,17.65625c-19.47131,0 -35.3125,15.84119 -35.3125,35.3125v120.0625c0,19.47131 15.84119,35.3125 35.3125,35.3125h120.0625c19.47131,0 35.3125,-15.84119 35.3125,-35.3125v-120.0625c0,-19.47131 -15.84119,-35.3125 -35.3125,-35.3125z" fill="#009eff"></path><path d="M135.95313,183.625c-11.64253,0 -22.78362,-2.00928 -33.06309,-5.67472c-2.64491,-0.94284 -5.45578,-1.45134 -8.24194,-1.10175c-10.57609,1.31363 -16.93234,6.77647 -32.85122,6.77647c-2.33769,0 -4.27987,-0.113 -5.88306,-0.2825l-10.00756,-1.48313c0,0.904 0.34606,1.808 1.03466,2.49659l24.02309,24.02309l102.06725,-0.03531c19.50309,0 35.3125,-15.80941 35.3125,-35.3125v-21.74897c-17.16188,19.74322 -43.21544,32.34272 -72.39062,32.34272z" fill="#0096ff"></path><path d="M173.03125,17.65625h-81.55775c-29.23875,14.93012 -49.0985,44.11944 -49.0985,77.6875c0,22.95666 9.29072,43.86872 24.51394,59.56866c1.82212,1.87862 2.49306,4.65772 1.4125,7.04131c-5.48403,12.08394 -18.86394,19.90566 -18.86394,19.90566c0,0 3.08984,1.76563 12.35938,1.76563c15.92241,0 22.27866,-5.46637 32.85475,-6.78c2.78262,-0.34606 5.58997,0.15891 8.23134,1.10175c10.283,3.66897 21.42763,5.67825 33.07016,5.67825c29.17519,0 55.22875,-12.5995 72.39063,-32.34272v-98.31353c0,-19.50309 -15.80941,-35.3125 -35.3125,-35.3125z" fill="#ffffff"></path><path d="M121.47853,189.66697c-0.16597,0 -0.33194,-0.01059 -0.50144,-0.03531c-1.93159,-0.27191 -3.27347,-2.06225 -3.00156,-3.99384l0.98875,-6.98834c0.27544,-1.93159 2.06931,-3.28406 3.99031,-3.00156c1.93159,0.27191 3.27347,2.06225 3.00156,3.99384l-0.98875,6.98834c-0.24719,1.76563 -1.75856,3.03688 -3.48887,3.03688zM140.48725,190.57803c1.94925,-0.08122 3.46062,-1.72678 3.37941,-3.67603l-0.29663,-7.05544c-0.08122,-1.95278 -1.73738,-3.5595 -3.67956,-3.37941c-1.94925,0.08122 -3.46062,1.72678 -3.37941,3.67603l0.29663,7.05544c0.07769,1.89981 1.64203,3.38294 3.52419,3.38294c0.05297,0 0.10594,0 0.15538,-0.00353zM159.85616,187.95784c1.89981,-0.44141 3.08631,-2.33769 2.64491,-4.2375l-1.58906,-6.87887c-0.43788,-1.89981 -2.34828,-3.08984 -4.23397,-2.64491c-1.89981,0.44141 -3.08631,2.33769 -2.64491,4.2375l1.58906,6.87887c0.37431,1.63144 1.82919,2.73319 3.43591,2.73319c0.26131,0 0.52969,-0.02825 0.79806,-0.08828zM178.42347,181.77816c1.78328,-0.791 2.58841,-2.87444 1.80094,-4.65772l-2.85325,-6.45866c-0.791,-1.79034 -2.8815,-2.58841 -4.65772,-1.80447c-1.78328,0.791 -2.58841,2.87444 -1.80094,4.65772l2.85325,6.45866c0.58266,1.32069 1.87509,2.10462 3.23109,2.10462c0.48025,0 0.96403,-0.09887 1.42663,-0.30016zM195.50766,172.18022c1.59966,-1.11234 1.99162,-3.31231 0.87928,-4.9155l-4.03975,-5.79831c-1.11588,-1.60319 -3.31584,-1.98809 -4.9155,-0.87928c-1.59966,1.11234 -1.99162,3.31231 -0.87928,4.9155l4.03975,5.79831c0.68506,0.98522 1.78328,1.51491 2.89916,1.51491c0.69919,-0.00353 1.40191,-0.20834 2.01634,-0.63563z" fill="#000000"></path><path d="M61.79688,187.15625c-9.71447,0 -13.46112,-1.85744 -14.11087,-2.23175c-1.09469,-0.62503 -1.76916,-1.78681 -1.77622,-3.04394c-0.00706,-1.25713 0.66034,-2.4295 1.74444,-3.06512c0.12712,-0.07416 12.49709,-7.43681 17.43378,-18.32013c0.43787,-0.96403 0.14478,-2.22116 -0.73097,-3.12516c-16.45209,-16.96059 -25.51328,-38.99206 -25.51328,-62.02641c0,-33.78347 19.55253,-64.75959 51.02656,-80.83384c1.73738,-0.88634 3.86672,-0.19775 4.74953,1.53962c0.88634,1.73738 0.19775,3.86672 -1.53962,4.75306c-29.0975,14.8595 -47.17397,43.42378 -47.17397,74.54116c0,21.19103 8.35141,41.471 23.51813,57.11091c2.92387,3.01569 3.74312,7.31675 2.0905,10.961c-3.24169,7.14019 -8.89875,12.83963 -13.42228,16.56862c1.08763,0.06709 2.3165,0.10947 3.70428,0.10947c9.12122,0 14.87716,-1.89628 20.44594,-3.729c3.68309,-1.21475 7.49331,-2.46834 11.978,-3.02275c3.08278,-0.37784 6.40569,0.04944 9.85572,1.28184c1.83625,0.65681 2.79322,2.67669 2.13287,4.51294c-0.65681,1.83625 -2.67669,2.79675 -4.51294,2.13288c-2.40125,-0.85809 -4.62947,-1.17238 -6.60697,-0.92519c-3.79609,0.47319 -7.119,1.56434 -10.63612,2.72259c-5.81244,1.921 -12.40175,4.08919 -22.6565,4.08919z" fill="#000000"></path><path d="M176.5625,123.59375c-9.73566,0 -17.65625,-8.61272 -17.65625,-19.20294c0,-10.59022 7.92059,-19.20294 17.65625,-19.20294c9.73566,0 17.65625,8.61272 17.65625,19.20294c0,10.59022 -7.92059,19.20294 -17.65625,19.20294zM176.5625,95.34375c-3.89497,0 -7.0625,4.06094 -7.0625,9.04706c0,4.98613 3.16753,9.04706 7.0625,9.04706c3.89497,0 7.0625,-4.06094 7.0625,-9.04706c0,-4.98613 -3.16753,-9.04706 -7.0625,-9.04706z" fill="#000000"></path><path d="M150.07813,123.59375c-2.92741,0 -5.29687,-2.373 -5.29687,-5.29687v-42.375c0,-2.92387 2.36947,-5.29687 5.29688,-5.29687c2.92741,0 5.29688,2.373 5.29688,5.29688v42.375c0,2.92388 -2.36947,5.29688 -5.29687,5.29688z" fill="#000000"></path><path d="M134.62891,86.07422c-1.99162,0 -3.70428,1.11234 -4.60828,2.73319c-2.68022,-2.26706 -5.96075,-3.616 -9.51672,-3.616c-9.01881,0 -16.33203,8.59506 -16.33203,19.20294c0,10.60434 7.31322,19.20294 16.33203,19.20294c3.55597,0 6.8365,-1.34894 9.51672,-3.616c0.904,1.62438 2.61666,2.73319 4.60828,2.73319c2.92741,0 5.29688,-2.373 5.29688,-5.29687v-26.04297c0,-2.92741 -2.36947,-5.30041 -5.29687,-5.30041zM122.04706,113.44141c-4.02209,0 -7.28144,-4.05034 -7.28144,-9.04706c0,-4.99672 3.25934,-9.04706 7.28144,-9.04706c4.02209,0 7.28144,4.05034 7.28144,9.04706c0.00353,4.99672 -3.25581,9.04706 -7.28144,9.04706z" fill="#000000"></path><path d="M98.875,122.26953h-26.04297c-2.17525,0 -4.13509,-1.20416 -5.12384,-3.13928c-0.98522,-1.93866 -0.80513,-4.23044 0.46966,-5.98547l20.37531,-28.39478h-15.27972c-2.92741,0 -5.29687,-2.373 -5.29687,-5.29687c0,-2.92387 2.36947,-5.29687 5.29688,-5.29687h25.60156c1.98456,0 3.80669,1.10881 4.71069,2.87797c0.90753,1.76563 0.74863,3.89497 -0.40962,5.50875l-20.905,29.13281h16.60394c2.92741,0 5.29688,2.373 5.29688,5.29688c0,2.92388 -2.36947,5.29688 -5.29687,5.29688zM76.80116,119.29975l-0.03178,0.04944c0.00706,-0.01766 0.02119,-0.03178 0.03178,-0.04944z" fill="#000000"></path><path d="M173.03125,21.1875c17.52559,0 31.78125,14.25566 31.78125,31.78125v120.0625c0,17.52559 -14.25566,31.78125 -31.78125,31.78125h-120.0625c-17.52559,0 -31.78125,-14.25566 -31.78125,-31.78125v-120.0625c0,-17.52559 14.25566,-31.78125 31.78125,-31.78125h120.0625M173.03125,14.125h-120.0625c-21.45234,0 -38.84375,17.39141 -38.84375,38.84375v120.0625c0,21.45234 17.39141,38.84375 38.84375,38.84375h120.0625c21.45234,0 38.84375,-17.39141 38.84375,-38.84375v-120.0625c0,-21.45234 -17.39141,-38.84375 -38.84375,-38.84375z" fill="#000000"></path></g><path d="" fill="none"></path><path d="" fill="none"></path></g></g></svg>