<svg xmlns="http://www.w3.org/2000/svg" x="0px" y="0px"
width="64" height="64"
viewBox="0 0 172 172"
style=" fill:#000000;"><g fill="none" fill-rule="nonzero" stroke="none" stroke-width="1" stroke-linecap="butt" stroke-linejoin="miter" stroke-miterlimit="10" stroke-dasharray="" stroke-dashoffset="0" font-family="none" font-weight="none" font-size="none" text-anchor="none" style="mix-blend-mode: normal"><path d="M0,172v-172h172v172z" fill="none"></path><g><g><rect x="1" y="1" transform="scale(2.6875,2.6875)" width="62" height="62" rx="6" ry="0" fill="#5b79b8"></rect><path d="M153.1875,2.6875h-134.375c-8.90559,0 -16.125,7.21941 -16.125,16.125v26.875c0,32.65384 26.47116,59.125 59.125,59.125h48.375c32.65384,0 59.125,-26.47116 59.125,-59.125v-26.875c0,-8.90559 -7.21941,-16.125 -16.125,-16.125z" fill="#6688cf"></path><path d="M153.1875,2.6875h-134.375c-8.90559,0 -16.125,7.21941 -16.125,16.125v10.75c0,-8.90559 7.21941,-16.125 16.125,-16.125h134.375c8.90559,0 16.125,7.21941 16.125,16.125v-10.75c0,-8.90559 -7.21941,-16.125 -16.125,-16.125z" fill="#739ae8"></path><path d="M153.1875,158.5625h-134.375c-8.90559,0 -16.125,-7.21941 -16.125,-16.125v10.75c0,8.90559 7.21941,16.125 16.125,16.125h134.375c8.90559,0 16.125,-7.21941 16.125,-16.125v-10.75c0,8.90559 -7.21941,16.125 -16.125,16.125z" fill="#4462a3"></path><rect x="30" y="59" transform="scale(2.6875,2.6875)" width="10" height="4" fill="#aeb2d4"></rect><path d="M115.5625,56.4375h29.5625v-26.875h-32.25c-17.81118,0 -32.25,14.43882 -32.25,32.25v16.125h-21.5v26.875h21.5v53.75h26.875v-53.75h32.25l5.375,-26.875h-37.625v-13.4375c0,-4.4528 3.6097,-8.0625 8.0625,-8.0625z" fill="#fdfef9"></path><rect x="22" y="39" transform="scale(2.6875,2.6875)" width="8" height="3" fill="#4462a3"></rect><path d="M107.5,104.8125v8.0625h32.25l5.375,-26.875h-1.6125l-3.7625,18.8125z" fill="#4462a3"></path><path d="M107.5,64.5v8.0625c0,-4.4528 3.6097,-8.0625 8.0625,-8.0625h29.5625v-8.0625h-29.5625c-4.4528,0 -8.0625,3.6097 -8.0625,8.0625z" fill="#4462a3"></path><path d="M115.5625,59.125h29.5625c1.48427,0 2.6875,-1.20323 2.6875,-2.6875v-26.875c0,-1.48427 -1.20323,-2.6875 -2.6875,-2.6875h-32.25c-12.47631,0.02543 -23.99968,6.67747 -30.26125,17.46875l4.65206,2.6875c5.2995,-9.13155 15.05128,-14.76013 25.60919,-14.78125h29.5625v21.5h-26.875c-5.93706,0 -10.75,4.81294 -10.75,10.75v13.4375c0,1.48427 1.20323,2.6875 2.6875,2.6875h34.34625l-4.3,21.5h-30.04625c-1.48427,0 -2.6875,1.20323 -2.6875,2.6875v45.6875h5.375v-43h29.5625c1.27728,0.00026 2.37829,-0.89852 2.63375,-2.15l5.375,-26.875c0.16142,-0.79081 -0.04112,-1.6123 -0.55165,-2.23744c-0.51053,-0.62514 -1.27499,-0.98773 -2.0821,-0.98756h-34.9375v-10.75c0,-2.96853 2.40647,-5.375 5.375,-5.375z" fill="#000000"></path><path d="M78.42125,55.99406l5.29975,0.88687c0.28251,-1.67442 0.70779,-3.3216 1.27119,-4.9235l-5.06594,-1.78988c-0.67081,1.8945 -1.1744,3.84412 -1.505,5.8265z" fill="#000000"></path><path d="M166.625,153.1875c-0.00889,7.41764 -6.01986,13.42861 -13.4375,13.4375h-43v-10.75h-5.375v10.75h-21.5v-61.8125c0,-1.48427 -1.20323,-2.6875 -2.6875,-2.6875h-18.8125v-21.5h18.8125c1.48427,0 2.6875,-1.20323 2.6875,-2.6875v-16.125h-5.375v13.4375h-18.8125c-1.48427,0 -2.6875,1.20323 -2.6875,2.6875v26.875c0,1.48427 1.20323,2.6875 2.6875,2.6875h18.8125v59.125h-59.125c-7.41764,-0.00889 -13.42861,-6.01986 -13.4375,-13.4375v-134.375c0.00889,-7.41764 6.01986,-13.42861 13.4375,-13.4375h5.375v-5.375h-5.375c-10.38495,0.01185 -18.80065,8.42755 -18.8125,18.8125v134.375c0.01185,10.38495 8.42755,18.80065 18.8125,18.8125h134.375c10.38495,-0.01185 18.80065,-8.42755 18.8125,-18.8125v-5.375h-5.375z" fill="#000000"></path><path d="M153.1875,0h-112.875v5.375h112.875c11.69331,0 13.4375,15.15481 13.4375,24.1875v112.875h5.375v-112.875c0,-26.6815 -13.16875,-29.5625 -18.8125,-29.5625z" fill="#000000"></path><rect x="11" y="0" transform="scale(2.6875,2.6875)" width="2" height="2" fill="#000000"></rect></g></g></g>
</svg>