<svg xmlns="http://www.w3.org/2000/svg" x="0px" y="0px"
width="50" height="50"
viewBox="0 0 172 172"
style=" fill:#000000;"><g fill="none" fill-rule="nonzero" stroke="none" stroke-width="1" stroke-linecap="butt" stroke-linejoin="miter" stroke-miterlimit="10" stroke-dasharray="" stroke-dashoffset="0" font-family="none" font-weight="none" font-size="none" text-anchor="none" style="mix-blend-mode: normal"><path d="M0,172v-172h172v172z" fill="none"></path><g><path d="M120.10773,5.375h-67.70148c-5.80773,0 -10.51635,4.70711 -10.5182,10.51484v140.22031c0.00185,5.80773 4.71047,10.51484 10.5182,10.51484h67.70148c5.80773,0 10.51635,-4.70711 10.5182,-10.51484v-140.22031c-0.00185,-5.80773 -4.71047,-10.51484 -10.5182,-10.51484z" fill="#ffffff"></path><path d="M109.04195,5.375v7.01102c0.00045,1.85957 -0.73807,3.64311 -2.05299,4.95803c-1.31492,1.31492 -3.09846,2.05343 -4.95803,2.05299h-31.54789c-1.85957,0.00045 -3.64311,-0.73807 -4.95803,-2.05299c-1.31492,-1.31492 -2.05343,-3.09846 -2.05299,-4.95803v-7.01102z" fill="#cccccc"></path><path d="M51.96617,156.11016v-140.22031c0.00185,-5.80773 4.71047,-10.51484 10.5182,-10.51484h-10.07812c-5.80773,0 -10.51635,4.70711 -10.5182,10.51484v140.22031c0.00185,5.80773 4.71047,10.51484 10.5182,10.51484h10.07813c-5.80773,0 -10.51635,-4.70711 -10.5182,-10.51484z" fill="#ffffff"></path><path d="M92.95391,12.0353c0,-1.1132 -0.90243,-2.01562 -2.01562,-2.01562h-18.47656c-1.1132,0 -2.01562,0.90243 -2.01562,2.01563c0,1.1132 0.90243,2.01563 2.01563,2.01563h18.47656c1.1132,0 2.01563,-0.90243 2.01563,-2.01562z" fill="#333333"></path><circle cx="295.742" cy="35.826" transform="scale(0.33594,0.33594)" r="8.087" fill="#333333"></circle><path d="M132.64022,30.95026v-15.06041c-0.00851,-6.91686 -5.61361,-12.52195 -12.53047,-12.53047h-67.7035c-6.91686,0.00851 -12.52195,5.61361 -12.53047,12.53047v18.21151c-1.07171,0.05365 -1.9135,0.93753 -1.91484,2.01059v7.01102c0.00134,1.07305 0.84313,1.95693 1.91484,2.01059v6.49502c-1.07171,0.05365 -1.9135,0.93753 -1.91484,2.01059v7.01068c0.00116,1.07318 0.843,1.95726 1.91484,2.01092v93.44941c0.00851,6.91686 5.61361,12.52195 12.53047,12.53047h67.70216c6.91751,-0.00852 12.52288,-5.61464 12.53047,-12.53215v-114.3071c0.83549,-0.26677 1.40258,-1.04317 1.40254,-1.92022v-7.01068c0.00023,-0.87668 -0.56624,-1.65298 -1.4012,-1.92022zM128.60897,156.10848c-0.00537,4.69256 -3.808,8.49534 -8.50056,8.5009h-67.70216c-4.69204,-0.00629 -8.49385,-3.80886 -8.49922,-8.5009v-140.21863c0.00629,-4.69138 3.80784,-8.49293 8.49922,-8.49922h9.05049v4.99539c0.00019,4.98514 4.0415,9.0263 9.02664,9.0263h1.57521c1.1132,0 2.01563,-0.90243 2.01563,-2.01562c0,-1.1132 -0.90243,-2.01562 -2.01562,-2.01562h-1.57588c-1.32492,0.00009 -2.5956,-0.52617 -3.53249,-1.463c-0.93689,-0.93683 -1.46323,-2.20748 -1.46323,-3.53239v-4.99505h41.53968v4.99539c0,2.75869 -2.23636,4.99505 -4.99505,4.99505h-16.53552c-1.1132,0 -2.01562,0.90243 -2.01562,2.01563c0,1.1132 0.90243,2.01563 2.01563,2.01563h16.53552c4.98509,0 9.0263,-4.04121 9.0263,-9.0263v-4.99539h9.05049c4.69138,0.00629 8.49293,3.80784 8.49922,8.49922z" fill="#333333"></path></g></g></svg>